<svg width="40" height="58" viewBox="0 0 40 58" fill="none" xmlns="http://www.w3.org/2000/svg">
<path d="M4.49303 13.7128L32.6593 4.07437C33.7571 3.70097 34.3402 2.51067 33.964 1.41568C33.5917 0.322942 32.4025 -0.261835 31.3047 0.113252L23.9006 2.64803C23.4901 1.44035 22.1776 0.797267 20.9688 1.20992L11.9785 4.2863C10.7697 4.69896 10.1249 6.01316 10.5398 7.22196L3.13733 9.75674C2.04291 10.1301 1.45757 11.3204 1.83266 12.4149C2.20943 13.5048 3.39804 14.089 4.49303 13.7128Z" fill="white"/>
<path d="M37.6246 50.7208H32.5999L34.879 18.8121C34.879 17.3538 33.4173 17.1497 31.617 17.1497H4.17793C2.37819 17.1497 0.919891 17.3538 0.919891 18.8121L2.8727 55.3587C2.8727 56.817 4.33492 58.0006 6.13467 58.0006H29.0133C30.813 58.0006 32.2719 56.817 32.2719 55.3587L32.3296 54.5435H37.6246C38.4269 54.5435 39.0795 53.6879 39.0795 52.6322C39.0795 51.5764 38.4269 50.7208 37.6246 50.7208ZM10.7776 52.8082C9.85638 52.8979 9.03949 52.2285 8.9509 51.3112L6.26867 24.1676C6.18064 23.2498 6.8484 22.4329 7.76621 22.3421C8.68346 22.2518 9.50484 22.9196 9.59287 23.8396L12.2757 50.9832C12.3654 51.8988 11.6959 52.7163 10.7776 52.8082ZM19.5683 51.212C19.5683 52.1349 18.8203 52.8828 17.898 52.8828C16.9769 52.8828 16.2278 52.1365 16.2278 51.212V23.9355C16.2278 23.0143 16.9769 22.2653 17.898 22.2653C18.8203 22.2653 19.5683 23.0143 19.5683 23.9355V51.212ZM26.8491 51.3118C26.7572 52.229 25.9397 52.8985 25.0225 52.8088C24.1052 52.7185 23.4318 51.9011 23.526 50.9838L26.206 23.8402C26.2946 22.9218 27.1115 22.2524 28.031 22.3426C28.9522 22.4335 29.6194 23.2503 29.5314 24.1682L26.8491 51.3118Z" fill="white"/>
</svg>
