<svg width="23" height="23" viewBox="0 0 23 23" fill="none" xmlns="http://www.w3.org/2000/svg">
<path d="M11.1633 0.00619888C10.8093 0.0403557 10.4407 0.14283 10.1648 0.284857C9.55114 0.601269 9.09 1.21971 8.91026 1.97119C8.81222 2.37749 8.81586 2.25344 8.80859 5.67105L8.80133 8.84056H5.69317C2.32721 8.84056 2.35444 8.84056 1.93324 8.93764C1.20159 9.11023 0.591578 9.55968 0.288388 10.153C0.081419 10.5611 -0.0202498 11.077 0.00335191 11.6218C0.0342156 12.3373 0.286572 12.9234 0.767683 13.3998C1.13079 13.7575 1.52112 13.9733 2.02947 14.0919C2.39983 14.18 2.3617 14.18 5.68409 14.18H8.80133L8.80859 17.3477C8.81586 20.7671 8.81222 20.6431 8.91026 21.0494C9.09181 21.8063 9.53661 22.3995 10.1593 22.7159C10.3845 22.831 10.6114 22.9047 10.8892 22.9569C11.1942 23.0144 11.786 23.0144 12.0929 22.9569C12.6375 22.8562 13.026 22.6566 13.3873 22.2989C13.8121 21.8746 14.05 21.3802 14.1517 20.706C14.1807 20.5172 14.1843 20.2206 14.1898 17.3387L14.197 14.18H17.3143C20.742 14.18 20.6712 14.1818 21.1105 14.0704C21.8367 13.8852 22.4086 13.4411 22.7191 12.8155C22.9932 12.2672 23.0749 11.4833 22.9278 10.7912C22.7772 10.0685 22.3324 9.49676 21.6624 9.16057C21.4446 9.04911 21.3175 9.00416 21.0597 8.93944C20.6639 8.84056 20.6766 8.84056 17.3052 8.84056H14.197L14.1898 5.67105C14.1843 2.8593 14.1807 2.48176 14.1535 2.31097C14.0464 1.60803 13.7849 1.09207 13.3129 0.642618C12.9788 0.324408 12.5994 0.139235 12.0983 0.0475483C11.9022 0.011591 11.3612 -0.0117798 11.1633 0.00619888Z" fill="white"/>
</svg>
