<svg width="27" height="27" viewBox="0 0 27 27" fill="none" xmlns="http://www.w3.org/2000/svg">
<path d="M25.937 10.311C26.5241 10.311 27 10.7869 27 11.374V15.626C27 16.2131 26.5241 16.689 25.937 16.689L1.06299 16.689C0.475917 16.689 -2.56618e-08 16.2131 0 15.626L1.85859e-07 11.374C2.11521e-07 10.7869 0.475918 10.311 1.06299 10.311L25.937 10.311Z" fill="white"/>
<path d="M10.311 1.06299C10.311 0.475917 10.7869 0 11.374 0H15.626C16.2131 0 16.689 0.475918 16.689 1.06299V25.937C16.689 26.5241 16.2131 27 15.626 27H11.374C10.7869 27 10.311 26.5241 10.311 25.937V1.06299Z" fill="white"/>
</svg>
