<svg width="512" height="513" viewBox="0 0 512 513" fill="none" xmlns="http://www.w3.org/2000/svg">
<path d="M512 479.023V114.023C511.9 111.123 510.8 107.923 507.9 105.023L407.4 4.52322C407.4 4.52322 402.1 -0.376778 395.7 0.0232218H33C33 0.0232218 0 0.0232201 0 33.0232V479.023C0 479.023 0 512.023 33 512.023H479C479 512.023 512 512.023 512 479.023ZM403 163.023C403 185.023 381 185.023 381 185.023H131C109 185.023 109 163.023 109 163.023V58.0232C109 36.0232 131 36.0232 131 36.0232H381C403 36.0232 403 58.0232 403 58.0232V163.023ZM476 454.023C476 476.023 454 476.023 454 476.023H58C36 476.023 36 454.023 36 454.023V254.023C36 232.023 58 232.023 58 232.023H454C476 232.023 476 254.023 476 254.023V454.023ZM385 156.023V65.0232C385 65.0232 385 50.0232 370 50.0232H321C321 50.0232 306 50.0232 306 65.0232V156.023C306 156.023 306 171.023 321 171.023H370C370 171.023 385 171.023 385 156.023Z" fill="white"/>
</svg>
